/* XPM */
static char * uqm_balance_xpm[] = {
"32 32 257 2",
"  	c None",
". 	c #000000",
"+ 	c #0000A8",
"@ 	c #00A800",
"# 	c #00A8A8",
"$ 	c #A80000",
"% 	c #A800A8",
"& 	c #A85400",
"* 	c #A8A8A8",
"= 	c #545454",
"- 	c #5454FC",
"; 	c #54FC54",
"> 	c #54FCFC",
", 	c #FC5454",
"' 	c #FC54FC",
") 	c #FCFC54",
"! 	c #FCFCFC",
"~ 	c #ECECEC",
"{ 	c #E0E0E0",
"] 	c #D4D4D4",
"^ 	c #C4C4C4",
"/ 	c #B8B8B8",
"( 	c #ACACAC",
"_ 	c #A0A0A0",
": 	c #949494",
"< 	c #888888",
"[ 	c #7C7C7C",
"} 	c #747474",
"| 	c #686868",
"1 	c #5C5C5C",
"2 	c #505050",
"3 	c #444444",
"4 	c #3C3C3C",
"5 	c #303030",
"6 	c #242424",
"7 	c #181818",
"8 	c #101010",
"9 	c #FCCCCC",
"0 	c #FCA0A0",
"a 	c #FC7878",
"b 	c #FC4C4C",
"c 	c #FC2424",
"d 	c #FC0000",
"e 	c #D80000",
"f 	c #B80000",
"g 	c #980000",
"h 	c #740000",
"i 	c #540000",
"j 	c #340000",
"k 	c #F474FC",
"l 	c #F438FC",
"m 	c #FC00FC",
"n 	c #D800D8",
"o 	c #B400B4",
"p 	c #940094",
"q 	c #700070",
"r 	c #500050",
"s 	c #B454FC",
"t 	c #A434FC",
"u 	c #9400FC",
"v 	c #7800CC",
"w 	c #6000A8",
"x 	c #4C0088",
"y 	c #380064",
"z 	c #240044",
"A 	c #D8DCFC",
"B 	c #C4CCFC",
"C 	c #B4BCFC",
"D 	c #A4ACFC",
"E 	c #949CFC",
"F 	c #808CFC",
"G 	c #707CFC",
"H 	c #606CFC",
"I 	c #505CFC",
"J 	c #4048FC",
"K 	c #2C38FC",
"L 	c #1C28FC",
"M 	c #0C14FC",
"N 	c #0004FC",
"O 	c #0004E8",
"P 	c #0000D4",
"Q 	c #0000C0",
"R 	c #0000AC",
"S 	c #000098",
"T 	c #000084",
"U 	c #000070",
"V 	c #00005C",
"W 	c #000048",
"X 	c #000034",
"Y 	c #D0ECFC",
"Z 	c #A0CCE8",
"` 	c #74B4D4",
" .	c #4C9CC4",
"..	c #2C84B0",
"+.	c #10709C",
"@.	c #086088",
"#.	c #045478",
"$.	c #044464",
"%.	c #003854",
"&.	c #002C40",
"*.	c #002030",
"=.	c #A8FCA4",
"-.	c #54FC50",
";.	c #00FC00",
">.	c #00E400",
",.	c #00CC00",
"'.	c #00B400",
").	c #009C00",
"!.	c #008400",
"~.	c #006C00",
"{.	c #005400",
"].	c #004000",
"^.	c #002800",
"/.	c #F8FC90",
"(.	c #FCFC00",
"_.	c #D8BC00",
":.	c #B48800",
"<.	c #986000",
"[.	c #7C3C00",
"}.	c #602400",
"|.	c #441000",
"1.	c #FCE000",
"2.	c #FCC000",
"3.	c #FCA400",
"4.	c #FC8800",
"5.	c #FC6C00",
"6.	c #FC5000",
"7.	c #FC3400",
"8.	c #FC1800",
"9.	c #FCFCFC",
"0.	c #FCFCFC",
"a.	c #FCFCFC",
"b.	c #FCFCFC",
"c.	c #FCFCFC",
"d.	c #FCFCFC",
"e.	c #FCFCFC",
"f.	c #FCFCFC",
"g.	c #FCFCFC",
"h.	c #FCFCFC",
"i.	c #FCFCFC",
"j.	c #FCFCFC",
"k.	c #FCFCFC",
"l.	c #FCFCFC",
"m.	c #FCFCFC",
"n.	c #FCFCFC",
"o.	c #FCFCFC",
"p.	c #FCFCFC",
"q.	c #FCFCFC",
"r.	c #FCFCFC",
"s.	c #FCFCFC",
"t.	c #FCFCFC",
"u.	c #FCFCFC",
"v.	c #FCFCFC",
"w.	c #FCFCFC",
"x.	c #FCFCFC",
"y.	c #FCFCFC",
"z.	c #FCFCFC",
"A.	c #FCFCFC",
"B.	c #FCFCFC",
"C.	c #FCFCFC",
"D.	c #FCFCFC",
"E.	c #FCFCFC",
"F.	c #FCFCFC",
"G.	c #FCFCFC",
"H.	c #FCFCFC",
"I.	c #FCFCFC",
"J.	c #FCFCFC",
"K.	c #FCFCFC",
"L.	c #FCFCFC",
"M.	c #FCFCFC",
"N.	c #FCFCFC",
"O.	c #FCFCFC",
"P.	c #FCFCFC",
"Q.	c #FCFCFC",
"R.	c #FCFCFC",
"S.	c #FCFCFC",
"T.	c #FCFCFC",
"U.	c #FCFCFC",
"V.	c #FCFCFC",
"W.	c #FCFCFC",
"X.	c #FCFCFC",
"Y.	c #FCFCFC",
"Z.	c #FCFCFC",
"`.	c #FCFCFC",
" +	c #FCFCFC",
".+	c #FCFCFC",
"++	c #FCFCFC",
"@+	c #FCFCFC",
"#+	c #FCFCFC",
"$+	c #FCFCFC",
"%+	c #FCFCFC",
"&+	c #FCFCFC",
"*+	c #FCFCFC",
"=+	c #101010",
"-+	c #202020",
";+	c #343434",
">+	c #444444",
",+	c #545454",
"'+	c #646464",
")+	c #747474",
"!+	c #848484",
"~+	c #989898",
"{+	c #A8A8A8",
"]+	c #A8A8A8",
"^+	c #C8C8C8",
"/+	c #ECECEC",
"(+	c #FCFCFC",
"_+	c #D8FCD8",
":+	c #540000",
"<+	c #680404",
"[+	c #7C0404",
"}+	c #900808",
"|+	c #A40C0C",
"1+	c #A80000",
"2+	c #BC1010",
"3+	c #D01414",
"4+	c #FC5454",
"5+	c #FCFCFC",
"6+	c #FCFCFC",
"7+	c #FCFCFC",
"8+	c #FCFCFC",
"9+	c #FC8824",
"0+	c #A85400",
"a+	c #FCFCFC",
"b+	c #044800",
"c+	c #085400",
"d+	c #086804",
"e+	c #0C8004",
"f+	c #109408",
"g+	c #10A80C",
"h+	c #00A800",
"i+	c #14BC10",
"j+	c #1CD014",
"k+	c #20E818",
"l+	c #2CF02C",
"m+	c #54FC54",
"n+	c #B8F02C",
"o+	c #FCFC7C",
"p+	c #FCFCFC",
"q+	c #FCFCFC",
"r+	c #002440",
"s+	c #003054",
"t+	c #044068",
"u+	c #044C80",
"v+	c #085894",
"w+	c #0C6CA8",
"x+	c #1078BC",
"y+	c #1488D0",
"z+	c #1898E8",
"A+	c #40B0FC",
"B+	c #2CA4F0",
"C+	c #FCFCFC",
"D+	c #FCFCFC",
"E+	c #FCFCFC",
"F+	c #FCFCFC",
"G+	c #FCFCFC",
"H+	c #545454",
"                          U S R R S U                           ",
"                        U L I H H I L U                         ",
"                        U L I H H I L U                         ",
"                    U U L H F D D F H L U U                     ",
"                    S S I F B A A B F I S S                     ",
"                    R R H D A A A A D H R R                     ",
"                    S S I F B A A B F I S S                     ",
"                    S S I F B A A B F I S S                     ",
"                    U U 7.6._ _ _ _ H L U U                     ",
"                    4.4.4._ < | | | _ U                         ",
"      U S R S S U 4.1.1.| | } < < | | /                         ",
"      U S R S S U 4.1.1.| | } < < | | /                         ",
"  U U L I H I I 6.4.| | | } } [ [ _ | | } }                     ",
"U L L H F D F F 6._ | | } } [ [ [ } | } / /                     ",
"S I I F B A B B _ < } } } [ [ } } | | < } } /                   ",
"R H H D A A A A _ } < < [ [ } | | | . . < < <       j j j       ",
"R H H D A A A A _ } < < [ [ } | | | . . < < <       j j j       ",
"S I I F B A B B _ | | | _ } | | | . 1 [ . . | < i i f e f i i   ",
"U L L H F D F F H _ | | | | | . . 1 [ < _ _ : } : : a 0 a f f j ",
"  U U L I H I I L U ( ( } } | 8 8 [ < _ _ _ 1 : } } } 9 0 d d j ",
"      U S R S S U       } / } | | 8 _ _ | | 3 } } } a 0 a f f j ",
"      U S R S S U       } / } | | 8 _ _ | | 3 } } } a 0 a f f j ",
"                            / < < | _ 1 3 3 }   i i f e f i i   ",
"                                  < } : } }         j j j       ",
"                                  i : } } } i                   ",
"                                  i : } } } i                   ",
"                              i i f a } a a f j                 ",
"                              h h d 0 9 0 0 d j                 ",
"                              i i f a 0 a a f j                 ",
"                                  i f e f f i                   ",
"                                  i f e f f i                   ",
"                                    j j j j                     "};
