/* XPM */
static char * uqm_balance_retreat_xpm[] = {
"32 32 2 1",
" 	c None",
".	c #FF0000",
"             ......             ",
"            ........            ",
"            ........            ",
"          ............          ",
"          ............          ",
"          ............          ",
"          ............          ",
"          ............          ",
"          ............          ",
"          ..........            ",
"   .................            ",
"   .................            ",
" .....................          ",
"......................          ",
".......................         ",
".......................   ...   ",
".......................   ...   ",
"............................... ",
"................................",
" ...............................",
"   ......   ....................",
"   ......   ....................",
"              ......... ....... ",
"                 .....    ...   ",
"                 ......         ",
"                 ......         ",
"               .........        ",
"               .........        ",
"               .........        ",
"                 ......         ",
"                 ......         ",
"                  ....          "};
